<?xml version="1.0" standalone="no"?>
<!DOCTYPE svg PUBLIC "-//W3C//DTD SVG 20010904//EN"
 "http://www.w3.org/TR/2001/REC-SVG-20010904/DTD/svg10.dtd">
<svg version="1.0" xmlns="http://www.w3.org/2000/svg"
 width="136.000000pt" height="123.000000pt" viewBox="0 0 136.000000 123.000000"
 preserveAspectRatio="xMidYMid meet">

<g transform="translate(0.000000,123.000000) scale(0.100000,-0.100000)"
fill="#000000" stroke="none">
<path d="M535 1186 c-115 -28 -241 -105 -306 -187 -26 -34 -29 -41 -14 -35 11
4 134 37 274 73 252 64 294 70 328 42 7 -6 13 -26 13 -43 -1 -34 -75 -374 -84
-383 -10 -11 -156 8 -156 20 1 7 11 58 24 115 l23 102 -31 -23 c-17 -13 -134
-101 -261 -196 -187 -141 -230 -177 -227 -194 5 -44 74 -168 124 -222 112
-123 255 -188 413 -187 50 0 113 5 140 12 91 21 191 77 262 146 36 35 64 67
61 69 -2 3 -119 -25 -259 -60 -140 -36 -273 -65 -296 -65 -41 0 -73 19 -73 43
0 7 20 100 44 207 l43 195 59 -4 c32 -1 68 -7 80 -11 l22 -9 -19 -88 c-11 -48
-22 -96 -25 -107 -8 -25 -11 -27 270 184 141 107 245 192 246 201 0 9 -19 54
-42 100 -116 234 -389 365 -633 305z"/>
</g>
</svg>
